<svg xmlns="http://www.w3.org/2000/svg" width="16" height="25" viewBox="0 0 16 25">
  <path fill="#FFF" d="M4.23653714,24.4684526 C4.48657166,24.59308 4.75032504,24.3231977 4.59724268,24.0998252 C3.7663317,22.8873156 2.97950508,20.8470022 4.23310742,18.2193556 C6.32364366,13.8375132 7.59573299,11.5680234 7.59573299,11.5680234 C7.59573299,11.5680234 8.27234867,14.2164935 10.1064929,16.5713559 C11.87175,18.8377476 12.8379674,21.6881393 11.2802916,24.0626879 C11.1341105,24.2855507 11.3918828,24.5484918 11.6402861,24.4293153 C13.5684547,23.5045312 15.7310985,21.6495119 15.9751102,17.9580615 C16.0650774,16.8300617 15.9301474,15.2508463 15.2554558,13.2580231 C14.3879472,10.732298 13.3214734,9.55374919 12.7044177,9.04763163 C12.5198405,8.89621989 12.2327901,9.03041594 12.2479311,9.2599061 C12.4277401,11.9851606 11.3342469,12.6767291 10.7118374,11.1181803 C10.4632668,10.4956706 10.3182986,9.4189649 10.3182986,8.10774943 C10.3182986,5.92480862 9.64281224,3.67767174 8.15360527,1.85163283 C7.76634036,1.37677016 7.31319984,0.933044747 6.79330537,0.554652653 C6.60508935,0.417633068 6.33225977,0.555358535 6.34949199,0.778182028 C6.46384368,2.25802492 6.36024122,6.49916147 2.3917692,11.5659841 C-1.206461,16.2660226 0.187843265,19.8756298 0.68260044,20.8532767 C1.62853233,22.7261784 2.94796845,23.8260605 4.23653714,24.4684526 Z"/>
</svg>
